<?xml version="1.0" encoding="UTF-8"?>
<svg width="1200pt" height="1200pt" version="1.1" viewBox="0 0 1200 1200" xmlns="http://www.w3.org/2000/svg">
 <g>
  <path d="m848.87 957.78c-53.324-34.801-83.859-132.43-89.598-171.64-1.8711-12.871-13.133-26.766-28.02-26.766h-262.5c-14.887 0-26.148 13.895-28.023 26.766-5.7383 39.195-36.273 136.83-89.598 171.64-8.793 5.7305-13.629 15.18-13.629 26.598v46.875c0 15.508 12.617 28.125 28.125 28.125h468.75c15.508 0 28.125-12.617 28.125-28.125v-46.875c0-11.418-4.8359-20.867-13.633-26.598zm-5.1172 73.473c0 5.1641-4.2109 9.375-9.375 9.375h-468.75c-5.1641 0-9.375-4.2109-9.375-9.375v-46.875c0-5.0156 1.7266-8.6797 5.1172-10.902 59.203-38.633 91.527-141.07 97.902-184.61 0.78125-5.3164 5.5703-10.734 9.4805-10.734h262.5c3.9102 0 8.6992 5.418 9.4766 10.734 6.375 43.555 38.691 145.98 97.902 184.61 3.3945 2.2227 5.1211 5.8867 5.1211 10.902z"/>
  <path d="m1190.3 1096.5c0.28906-698.46-209.04-924.92-217.94-934.22-0.007812-0.007813-0.019531-0.007813-0.027343-0.019531-0.75781-0.78906-1.6602-1.4609-2.6992-1.9492l-70.012-33.477c0.12891-1.6602 0.34375-3.3672 0.34375-4.9414 0-67.633-99.336-93.273-158.54-102.54-40.238-6.3008-87.824-9.6367-141.51-9.918-53.586 0.28125-101.16 3.6172-141.4 9.918-59.215 9.2617-158.55 34.902-158.55 102.54 0 1.5742 0.21484 3.2812 0.33594 4.9297l-70.012 33.477c-1.0312 0.49609-1.9297 1.1641-2.6797 1.9492-0.007812 0.007812-0.027343 0.019531-0.039062 0.027343-8.9062 9.3047-218.23 235.76-217.94 934.22 0.007813 12.281 7.7422 22.68 18.496 26.68l0.22656 38.645c-0.99219 7.1328 0.86328 13.883 5.2578 19.117 5.207 6.168 13.539 9.7031 22.879 9.7031h84.102c14.559 0 25.867-13.801 27.938-26.289l8.2031-41.008c9.6953-3.8438 16.789-14.043 19.715-23.758 6.7773-22.613 15.965-65.832 28.727-135.64 1.2461 45.711 4.2383 86.645 9.3008 115.8 2.625 15.074 13.855 30.508 29.223 34.695l8.2109 49.227c1.6289 12.973 12.816 26.969 28.059 26.969h600c15.242 0 26.43-13.996 27.992-26.578l8.2578-49.555c15.723-4.1523 26.551-19.789 29.223-34.715 5.2773-29.531 8.2305-70.258 9.375-115.49 12.742 69.648 21.898 112.75 28.668 135.29 2.9141 9.7227 10.023 19.922 19.707 23.758l8.1484 40.715c2.1289 12.777 13.445 26.578 27.992 26.578h84.375c9.3477 0 17.68-3.5352 22.875-9.7031 4.4062-5.2305 6.2539-12 5.25-19.145v-38.625c10.746-4.0312 18.461-14.418 18.473-26.672zm-309.09-974.61c0 12.309-6.9648 40.246-33.328 57.824-40.586 27.055-110.98 58.922-220.82 63.496 38.812-33.684 116.48-112.04 121.97-203.59 85.359 14.98 132.18 44.023 132.18 82.266zm-281.23 119.39c-17.605-14.043-73.387-61.555-106.12-123.15 31.828-3.4297 67.293-5.3633 106.04-5.5703 38.832 0.20703 74.297 2.1367 106.12 5.5586-12.535 23.691-28.086 44.746-42.422 61.547-26.219 30.75-52.469 52.773-63.625 61.613zm130.35-204.58c-1.0977 22.117-7.0391 43.539-15.676 63.496-34.105-3.9648-72.516-6.1602-114.75-6.3828-42.16 0.22656-80.586 2.418-114.7 6.3945-8.7266-20.164-14.539-41.531-15.629-63.508 37.574-5.3711 81.336-8.25 130.33-8.5117 49.09 0.26172 92.863 3.1406 130.43 8.5117zm-279.44 2.9258c1.5938 26.391 9.3555 51.664 20.363 75.168 0.039062 0.066406 0.054687 0.14844 0.09375 0.21484 27.039 57.629 74.109 104.25 101.62 128.21-109.9-4.5469-180.32-36.43-220.92-63.496-26.367-17.586-33.332-45.523-33.332-57.832 0-38.242 46.82-67.293 132.18-82.266zm-310.3 1132.3h-84.102c-3.7422 0-6.9297-1.1328-8.5312-3.0273-0.63672-0.75781-1.4453-2.082-0.98438-4.7539 0.09375-0.54297 0.14063-1.0977 0.14063-1.6484l-0.21875-37.445h110.38l-7.1914 35.953c-0.87891 5.3047-5.7656 10.922-9.4961 10.922zm37.895-77.699c-2.0078 6.6914-6.9844 12.074-9.7695 12.074h-130.93c-5.1836 0-9.3945-4.3867-9.4023-9.7773-0.25391-596.16 157.3-848.34 201.39-907.2 39.648 161.07 44.492 311.12 14.164 446.21-9.7422 44.25-16.68 131.64-18.777 220.5-14.207 82.895-34.426 197.36-46.68 238.19zm721.48 77.699h-600c-4.1055 0-8.7852-5.2227-9.5078-10.922l-7.5547-45.328h634.12l-7.6133 45.711c-0.66406 5.3164-5.3438 10.539-9.4492 10.539zm47.023-95.398c-1.7617 9.8516-9.7773 20.398-18.898 20.398h-656.25c-9.1797 0-17.184-10.527-18.891-20.352-8.6523-49.734-11.117-134.3-9.2266-217.87 0.007813-0.066406 0.019532-0.12109 0.027344-0.1875 0.027344-0.1875-0.039062-0.35547-0.019531-0.54297 2.0234-87.918 8.8672-174.61 18.496-218.36 31.648-140.98 25.969-297.62-16.895-465.68l58.848-28.133c5.8203 17.805 17.879 36.516 37.453 49.566 33.664 22.445 86.832 47.992 163.95 60.094-1.2734 11.57-4.3984 18.73-7.9414 26.719-4.7656 10.715-10.176 22.883-10.176 45.953 0 23.09 5.4102 35.258 10.18 46.004 4.6055 10.352 8.5703 19.285 8.5703 38.391s-3.9648 28.039-8.5703 38.391c-4.7695 10.746-10.18 22.914-10.18 46.004 0 5.1758 4.1992 9.375 9.375 9.375s9.375-4.1992 9.375-9.375c0-19.105 3.9648-28.039 8.5703-38.391 4.7695-10.742 10.18-22.914 10.18-46.004 0-23.09-5.4102-35.258-10.18-46.004-4.6055-10.348-8.5703-19.281-8.5703-38.391 0-19.098 3.9648-28.023 8.5703-38.363 3.6641-8.25 7.6875-17.484 9.3555-31.762 23.258 2.8438 48.41 4.5391 75.824 4.5391 23.773 0 45.898-1.2461 66.543-3.4219 1.7344 13.66 5.7109 22.641 9.2617 30.648 4.6055 10.34 8.5703 19.266 8.5703 38.359 0 19.105-3.9648 28.039-8.5703 38.391-4.7695 10.746-10.18 22.914-10.18 46.004 0 23.09 5.4102 35.258 10.18 46.004 4.6055 10.352 8.5703 19.285 8.5703 38.391 0 5.1758 4.1992 9.375 9.375 9.375s9.375-4.1992 9.375-9.375c0-23.09-5.4102-35.258-10.18-46.004-4.6055-10.348-8.5703-19.285-8.5703-38.391s3.9648-28.039 8.5703-38.391c4.7695-10.742 10.18-22.91 10.18-46.004 0-23.07-5.4102-35.242-10.18-45.977-3.4297-7.7148-6.4414-14.512-7.8008-25.332 82.152-11.445 138.18-38.148 173.18-61.48 19.566-13.051 31.633-31.762 37.453-49.566l58.781 28.105c-41.438 156.94-47.129 313.51-16.875 465.5 16.613 82.496 27.695 334.46 9.3359 437.14zm27.48-222.25c-2.4648-88.492-9.6562-174.96-18.43-218.56-29.016-145.79-24.234-295.94 14.016-446.61 43.922 58.305 201.74 309.55 201.5 907.41 0 5.3906-4.2188 9.7773-9.4023 9.7773h-130.93c-2.7852 0-7.7617-5.3828-9.7695-12.074-12.27-40.867-32.613-156.07-46.977-239.95zm177.78 314.62c-1.5938 1.8945-4.7891 3.0273-8.5312 3.0273h-84.375c-3.7305 0-8.6172-5.6172-9.5625-11.211l-7.125-35.664h110.44v37.5c0 0.53516 0.046875 1.0703 0.14062 1.5938 0.44922 2.6719-0.33594 3.9844-0.98438 4.7539z"/>
 </g>
</svg>
