<?xml version="1.0" encoding="UTF-8"?>
<svg width="1200pt" height="1200pt" version="1.1" viewBox="0 0 1200 1200" xmlns="http://www.w3.org/2000/svg">
 <path d="m1076.2 479.62c-20.586-76.234-50.191-162.69-69.93-184-19.691-21.262-52.848-28.855-87.949-36.895-25.93-5.9375-52.672-12.07-74.066-23.953v-38.918c11.203-8.6328 18.41-19.059 16.898-31.391-1.5625-12.785-10.695-20.973-18.918-25.844 5.9492-8.0312 11.559-20.188 8.4023-35.477-6.1797-29.969-54.742-61.547-97.242-78.203-50.352-19.738-122.36-24.949-153.39-24.949-31.039 0-103.04 5.2109-153.39 24.949-42.504 16.656-91.062 48.234-97.242 78.203-3.1562 15.293 2.4531 27.449 8.4023 35.48-8.2227 4.8711-17.355 13.059-18.918 25.844-1.5078 12.328 5.6992 22.754 16.898 31.391v38.918c-21.395 11.883-48.137 18.016-74.066 23.953-35.105 8.0391-68.258 15.633-87.949 36.895-19.738 21.309-49.344 107.77-69.93 184-27.02 100.05-39.914 185-34.492 227.25 12.047 93.891 117.84 302.3 122.34 311.12 14.41 27.363 39.715 45.516 68.395 45.516 11.984 0 23.355-3.1992 33.602-8.8906v93.168c0 28.789 23.422 52.211 52.211 52.211h468.29c28.789 0 52.211-23.422 52.211-52.211v-93.172c10.246 5.6914 21.617 8.8906 33.602 8.8906 28.68 0 53.984-18.152 68.395-45.516 4.4961-8.8281 110.29-217.23 122.34-311.12 5.4258-42.238-7.4688-127.2-34.492-227.25zm-967.99 224.82c-5.1172-39.898 7.5898-122.09 33.992-219.86 22.883-84.723 51.047-160.39 65.516-176.02 15.699-16.949 46.07-23.906 78.23-31.27 27.145-6.2148 55.133-12.645 78.789-25.723 10.199 6.9609 34.809 21.973 74.02 35.258-49.82 46.41-108.59 67.496-179.17 64.324-4.0547-0.16797-7.8086 2.2461-9.2969 6.043-3.7188 9.4961-91.016 233.25-88.809 295 1.8398 51.469 47.535 139.26 64.773 170.66-27.797 7.3828-48.531 23.703-61.98 48.656-25.844-60.086-50.805-126.03-56.066-167.06zm91.707 245.9c-7.7305-16.383-16.422-35.211-25.316-55.234 11.703-32.488 33.883-50.91 67.77-56.191 3.1055-0.48438 5.7695-2.4648 7.125-5.3008s1.2266-6.1562-0.34766-8.875c-0.66406-1.1484-66.582-115.82-68.633-173.23-1.6367-45.758 53.543-197.59 77.094-260.11 24.449 95.25 35.191 197.11 32.043 303.66-26.668-30.508-62.492-35.098-64.059-35.285-5.2031-0.63281-9.9219 3.0938-10.562 8.3008-0.63672 5.2109 3.0781 9.9531 8.2852 10.605 0.32422 0.039062 32.539 4.3711 54.418 31.797 13.91 17.441 34.699 102.2 49.645 174.84-13.328-11.68-29.672-18.594-47.332-18.594-40.551 0.003907-74.242 36.352-80.129 83.625zm80.133 94.109c-21.398 0-40.277-13.957-51.422-35.117-0.078125-0.14844-0.6875-1.3555-1.7344-3.4375-5.6094-11.93-8.8438-25.883-8.8438-40.789 0-43.746 27.812-79.34 62.004-79.34 34.188 0 62.004 35.594 62.004 79.34-0.003906 43.75-27.82 79.344-62.008 79.344zm261.34 136.49h-175.53c-18.289 0-33.164-14.875-33.164-33.164v-107.96c17.363-18.059 28.398-44.844 28.398-74.711 0-13-2.1055-25.406-5.8945-36.777-3.2227-17.43-25.879-137.87-47.906-199.09 7.0938-126.64-4.8906-247.24-35.539-358.76 73.02 0.21094 136.14-25.711 187.77-77.234 23.223 6.5547 50.496 12.156 81.867 15.395v872.31zm0-891.5c-96.367-10.508-152.36-44.461-166.59-54.113v-27.938c26.73 13.125 59.504 19.914 65.637 21.109 5.168 1.0078 10.164-2.3594 11.172-7.5195 1.0078-5.1602-2.3594-10.168-7.5195-11.172-47.656-9.3008-87.996-29.41-86.328-43.027 1.3047-10.648 18.605-15.73 18.746-15.77 3.5547-0.95312 6.2422-3.875 6.8984-7.4922 0.65625-3.6211-0.82812-7.2969-3.8164-9.4414-0.14844-0.10547-14.898-10.906-11.562-27.086 3.3242-16.113 36.973-45.285 85.535-64.312 44.246-17.344 111.82-23.641 146.44-23.641s102.2 6.2969 146.44 23.637c48.562 19.031 82.215 48.203 85.535 64.316 3.2852 15.922-11.004 26.668-11.562 27.082-2.9805 2.1367-4.4492 5.8008-3.8047 9.4102 0.64453 3.6094 3.3203 6.5352 6.8516 7.5156 0.17187 0.046876 17.477 5.1328 18.781 15.777 1.668 13.617-38.672 33.727-86.328 43.027-5.1602 1.0078-8.5312 6.0078-7.5195 11.172 0.88672 4.5469 4.8711 7.6992 9.3359 7.6992 0.60547 0 1.2188-0.058594 1.8359-0.17969 6.1328-1.1953 38.906-7.9844 65.637-21.109v27.938c-14.254 9.6641-70.246 43.605-166.59 54.113l-0.003906-99.047c87.812-7.2969 123.14-29.398 124.88-30.516 4.4023-2.8438 5.6602-8.6992 2.8398-13.113-2.8203-4.418-8.6992-5.707-13.133-2.9141-0.24609 0.15625-13.559 8.2891-43.941 16.02 9.3867-21.359 19.812-55.711 2.7344-77.672-24.934-32.062-85.535-38.793-131.98-38.793s-107.05 6.7305-131.98 38.793c-17.078 21.961-6.6523 56.312 2.7344 77.672-30.375-7.7305-43.676-15.855-43.902-15.996-4.418-2.8516-10.312-1.5859-13.168 2.832-2.8555 4.418-1.5898 10.312 2.832 13.168 1.7305 1.1172 37.059 23.219 124.88 30.516l-0.007813 99.055zm58.613-152.43c39.031 0 56.227 20.727 63.203 33.832-18.422 1.7461-39.406 2.8281-63.203 2.8281-23.773 0-44.746-1.082-63.156-2.8242 7.0391-13.066 24.332-33.836 63.156-33.836zm-83.035 31.574c-8.0977-1.0781-15.59-2.2734-22.5-3.5508-9.2227-17.035-24.66-54.105-11.414-71.141 15.766-20.27 57.297-31.438 116.95-31.438 59.648 0 101.18 11.164 116.95 31.438 13.246 17.035-2.1914 54.105-11.41 71.141-6.9102 1.2773-14.402 2.4727-22.5 3.5508-6.9844-16.199-28.258-50.621-83.035-50.621-54.781 0-76.059 34.422-83.039 50.621zm122.6 1012.4h-79.129v-870.68c12.602 0.85547 25.766 1.3516 39.562 1.3516s26.961-0.49219 39.562-1.3516zm0-889.8c-12.582 0.90625-25.746 1.4297-39.562 1.4297s-26.98-0.51953-39.562-1.4297l-0.003906-99.461c12.297 0.65625 25.434 1.0391 39.562 1.0391 14.133 0 27.27-0.38281 39.562-1.0391zm227.74 856.64c0 18.289-14.879 33.164-33.164 33.164h-175.53v-872.3c31.371-3.2383 58.645-8.8438 81.867-15.395 51.633 51.527 114.7 77.48 187.77 77.234-30.648 111.52-42.633 232.12-35.539 358.76-22.027 61.223-44.688 181.66-47.906 199.09-3.7891 11.367-5.8945 23.777-5.8945 36.777 0 29.867 11.035 56.652 28.398 74.711v107.96zm105.81-141.88c-1.0469 2.082-1.6562 3.2891-1.7344 3.4375-11.148 21.16-30.027 35.117-51.422 35.117-34.188 0-62.004-35.594-62.004-79.344 0-43.746 27.812-79.34 62.004-79.34 34.188 0 62.004 35.594 62.004 79.34-0.003907 14.906-3.2383 28.863-8.8477 40.789zm26.977-55.555c-5.8867-47.27-39.578-83.621-80.137-83.621-17.66 0-34.004 6.9102-47.332 18.594 14.945-72.637 35.73-157.4 49.645-174.84 21.875-27.426 54.094-31.758 54.418-31.797 5.207-0.63672 8.9219-5.3633 8.3008-10.578-0.61719-5.2227-5.3438-8.9766-10.582-8.332-1.5664 0.1875-37.387 4.7773-64.059 35.285-3.1484-106.54 7.5938-208.41 32.043-303.66 23.551 62.527 78.73 214.36 77.094 260.11-2.0508 57.406-67.965 172.08-68.633 173.23-1.5742 2.7227-1.7031 6.0391-0.34766 8.875 1.3555 2.8359 4.0195 4.8164 7.125 5.3008 33.887 5.2812 56.07 23.703 67.77 56.191-8.8789 20.023-17.574 38.859-25.305 55.238zm91.707-245.9c-5.2656 41.031-30.227 106.97-56.07 167.06-13.449-24.953-34.184-41.273-61.98-48.656 17.238-31.398 62.938-119.19 64.773-170.66 2.2031-61.742-85.09-285.5-88.809-295-1.4844-3.7969-5.1875-6.2539-9.2969-6.043-70.57 3.1719-129.35-17.91-179.17-64.324 39.215-13.285 63.824-28.297 74.02-35.258 23.656 13.078 51.645 19.508 78.789 25.723 32.156 7.3672 62.531 14.324 78.23 31.27 14.469 15.625 42.637 91.297 65.516 176.02 26.41 97.777 39.117 179.97 33.996 219.87zm-171.84 202.59c-23.086 0-41.168 25.508-41.168 58.078 0 32.566 18.082 58.078 41.168 58.078 23.086 0 41.168-25.508 41.168-58.078 0-32.57-18.082-58.078-41.168-58.078zm0 97.102c-10.465 0-22.121-16.027-22.121-39.027 0-23.004 11.656-39.027 22.121-39.027 10.465 0 22.121 16.027 22.121 39.027s-11.66 39.027-22.121 39.027zm-639.91-97.102c-23.086 0-41.168 25.508-41.168 58.078 0 32.566 18.082 58.078 41.168 58.078 23.086 0 41.168-25.508 41.168-58.078 0.003906-32.57-18.082-58.078-41.168-58.078zm0 97.102c-10.465 0-22.121-16.027-22.121-39.027 0-23.004 11.656-39.027 22.121-39.027 10.465 0 22.121 16.027 22.121 39.027s-11.656 39.027-22.121 39.027zm319.96-779.21c8.0664 0 14.605 6.5391 14.605 14.605 0 8.0664-6.5391 14.605-14.605 14.605s-14.605-6.5391-14.605-14.605c-0.003906-8.0664 6.5391-14.605 14.605-14.605z"/>
</svg>
