<?xml version="1.0" encoding="UTF-8"?>
<svg width="1200pt" height="1200pt" version="1.1" viewBox="0 0 1200 1200" xmlns="http://www.w3.org/2000/svg">
 <path d="m1059.1 866.14c6.8672-14.184 24.754-55.367 24.754-99.617 0-44.93-20.598-84.488-28.262-97.652 6.1953-14.246 22.77-57.652 19.406-107.53-3.418-50.363-27.105-88.199-35.551-100.23 5.4727-21.266 24.059-109.05-19.652-182.39-44.18-74.078-194.14-139.34-226.67-152.82l0.003906-92.188c0.003907-18.59-15.109-33.711-33.684-33.711h-318.98c-18.574 0-33.688 15.121-33.688 33.711v92.188c-32.523 13.484-182.49 78.75-226.67 152.83-43.707 73.344-25.121 161.13-19.648 182.39-8.4453 12.027-32.133 49.863-35.551 100.23-3.3633 49.875 13.215 93.277 19.406 107.52-7.6602 13.164-28.258 52.727-28.258 97.656 0 44.254 17.887 85.434 24.754 99.617-6.9062 11.215-22.23 40.133-22.23 75.918 0 36.148 14.621 67.125 20.773 78.559-5.25 11.426-17.488 41.691-17.488 75.574 0 41.742 17.078 84.648 17.805 86.453 1.082 2.6875 3.332 4.7383 6.1055 5.5703 52.43 15.664 108.8 15.703 172.32 0.125 4.2578-1.0469 7.2539-4.8633 7.2539-9.25v-62.328h243.36c0.8125 7.0117 3.918 13.508 8.9844 18.566 5.9414 5.9453 13.848 9.2188 22.254 9.2188 16.105 0 29.402-12.164 31.238-27.785h243.37v62.328c0 4.3867 2.9961 8.2031 7.2539 9.25 31.68 7.7695 61.574 11.656 90.094 11.656 28.664 0 55.945-3.9258 82.227-11.781 2.7773-0.83203 5.0234-2.8789 6.1055-5.5703 0.72656-1.8047 17.805-44.711 17.805-86.453 0-33.883-12.238-64.148-17.488-75.574 6.1523-11.434 20.773-42.41 20.773-78.559 0.003906-35.789-15.32-64.707-22.227-75.918zm-490.62-669.06c-43.453-3.9492-80.453-16.738-110.07-38.082-4.2656-3.0742-10.215-2.1055-13.293 2.1562-3.0742 4.2656-2.1094 10.219 2.1562 13.293 30.785 22.184 68.559 35.883 112.43 40.859-4.3242 8.1562-6.7227 17.586-6.7227 27.293 0 15.035 5.7383 29.414 15.5 39.375v815.74h-249.91c-7.5586-5.0312-34.57-25.348-38.215-60.73-3.5156-34.254 9.6719-66.684 15.293-78.668h124.75c5.2578 0 9.5234-4.2656 9.5234-9.5234s-4.2656-9.5234-9.5234-9.5234l-125.31 0.003906c-7.4219-12.609-28.184-51.664-28.184-93.969 0-41.418 16.629-76.375 23.09-88.398h130.4c5.2578 0 9.5234-4.2656 9.5234-9.5234 0-5.2578-4.2656-9.5234-9.5234-9.5234l-129.57-0.003906c-5.6133-14.316-19.578-54.762-19.578-102.68 0-48.434 17.75-89.98 24.387-103.83h124.77c5.2578 0 9.5234-4.2656 9.5234-9.5234 0-5.2578-4.2656-9.5234-9.5234-9.5234l-124.91 0.003907c-6.1953-12.164-21.852-46.07-24.824-83.371-2.9922-37.586 4.7383-71.773 7.9609-83.984l68.988-20.48c5.0391-1.4961 7.9141-6.7969 6.418-11.84-1.5-5.043-6.7969-7.918-11.844-6.418l-67.117 19.926-24.621-38.844c-2.8164-4.4453-8.7031-5.7617-13.145-2.9453s-5.7617 8.6992-2.9453 13.141l26.176 41.301c-3.4102 12.434-12.215 49.605-8.8672 91.66 3.3359 41.93 20.715 78.793 27.32 91.492-7.0586 14.328-26.805 59.238-26.805 113.24 0 53.664 15.926 97.555 21.633 111.55-7.0391 12.73-25.961 51.34-25.961 98.574 0 47.465 22.648 89.934 30.98 103.95-6.3203 13.129-21.535 49.645-17.43 89.68 4.2656 41.398 33.188 65.387 44.898 73.5v59.125c-55.344 12.598-104.72 12.5-150.56-0.28906-4.1289-11.488-14.836-44.262-14.836-75.078 0-26.699 8.8906-51.543 14.039-63.695l54.41 21.98c1.168 0.47266 2.375 0.69531 3.5625 0.69531 3.7656 0 7.3359-2.25 8.832-5.9609 1.9688-4.875-0.38672-10.426-5.2656-12.398l-59.77-24.141c-4.7148-8.6172-19.105-37.629-19.105-70.617 0-28.695 11.809-52.852 18.074-63.652l53.871 20.328c1.1055 0.41797 2.2422 0.61328 3.3594 0.61328 3.8477 0 7.4727-2.3516 8.9102-6.1641 1.8555-4.9219-0.625-10.418-5.5469-12.273l-57.68-21.766c-5.4453-11.145-23.488-51.109-23.488-92.625 0-36.984 16.27-70.973 23.98-85.008l50.164 21.055c1.2031 0.50391 2.4531 0.74609 3.6797 0.74609 3.7227 0 7.2578-2.1953 8.7852-5.8398 2.0352-4.8516-0.24609-10.43-5.0977-12.469l-54.43-22.848c-5.0117-11.402-21.426-52.816-18.273-99.531 2.8984-42.766 22.547-76.234 30.785-88.551l35.566 10.387c0.89062 0.25781 1.7891 0.38281 2.6719 0.38281 4.1211 0 7.9219-2.6992 9.1367-6.8555 1.4727-5.0508-1.4219-10.336-6.4727-11.812l-36.902-10.777c-5.0117-20.523-21.145-101.63 17.77-166.93 45.289-75.934 221.57-146.62 223.35-147.33 3.625-1.4414 6.0078-4.9492 6.0078-8.8516l-0.003907-77.461c20.535 13.129 47.523 16.539 73.852 19.824 28.008 3.5 54.512 6.8398 68.809 21.469l-0.003907 100.96zm43.902 915.99c0 6.8516-5.5742 12.43-12.43 12.43-3.3203 0-6.4414-1.293-8.7891-3.6406-2.3438-2.3438-3.6367-5.4648-3.6367-8.7891v-819.32c4.0039 1.2266 8.1641 1.8945 12.43 1.8945s8.4258-0.66406 12.43-1.8945zm0-921.62c-4.0078-1.2344-8.168-1.9023-12.43-1.9023-4.2656 0-8.4258 0.66406-12.43 1.8945v-89.484h24.852l0.003906 89.492zm430.79 821.22-59.77 24.141c-4.8789 1.9727-7.2344 7.5195-5.2656 12.398 1.4961 3.7109 5.0664 5.9609 8.832 5.9609 1.1875 0 2.3945-0.22266 3.5625-0.69531l54.41-21.98c5.1523 12.152 14.043 36.996 14.043 63.695 0 30.816-10.707 63.59-14.836 75.078-45.84 12.789-95.219 12.887-150.56 0.28906v-59.125c11.715-8.1133 40.637-32.102 44.898-73.504 4.1055-40.031-11.109-76.543-17.434-89.676 8.332-14.02 30.98-56.488 30.98-103.95 0-47.234-18.922-85.844-25.961-98.574 5.7031-14.004 21.633-57.895 21.633-111.55 0-54.004-19.742-98.914-26.805-113.24 6.6016-12.699 23.98-49.562 27.32-91.492 3.3477-42.055-5.4531-79.227-8.8672-91.66l26.176-41.301c2.8164-4.4414 1.4961-10.324-2.9453-13.141-4.4492-2.8203-10.332-1.4961-13.145 2.9453l-24.621 38.844-67.117-19.926c-5.043-1.4961-10.344 1.375-11.844 6.418-1.4961 5.043 1.3789 10.344 6.418 11.84l68.988 20.48c3.2227 12.215 10.953 46.402 7.9609 83.984-2.9727 37.301-18.629 71.211-24.82 83.371l-124.89 0.003907c-5.2578 0-9.5234 4.2656-9.5234 9.5234s4.2656 9.5234 9.5234 9.5234h124.78c6.6484 13.816 24.379 55.238 24.379 103.83 0 47.926-13.969 88.379-19.578 102.68h-129.58c-5.2578 0-9.5234 4.2656-9.5234 9.5234 0 5.2578 4.2656 9.5234 9.5234 9.5234h130.4c6.4688 12.031 23.09 46.988 23.09 88.398 0 42.168-20.773 81.336-28.188 93.969l-125.3 0.003906c-5.2578 0-9.5234 4.2656-9.5234 9.5234 0 5.2578 4.2656 9.5234 9.5234 9.5234h124.76c5.6328 11.953 18.812 44.266 15.281 78.664-3.6484 35.406-30.695 55.727-38.215 60.73h-249.91v-815.75c9.7695-9.9766 15.5-24.348 15.5-39.371 0-9.7109-2.4062-19.145-6.7305-27.305 43.859-4.957 81.637-18.648 112.44-40.844 4.2656-3.0742 5.2344-9.0273 2.1562-13.293-3.0742-4.2656-9.0234-5.2305-13.293-2.1562-29.629 21.355-66.633 34.137-110.07 38.066v-100.95c14.297-14.629 40.801-17.969 68.809-21.469 26.328-3.2891 53.316-6.6953 73.852-19.824v77.465c0 3.9023 2.3789 7.4102 6.0078 8.8516 1.7773 0.70312 178.06 71.395 223.35 147.32 38.918 65.305 22.781 146.43 17.773 166.93l-36.902 10.777c-5.0508 1.4727-7.9453 6.7617-6.4727 11.812 1.2148 4.1602 5.0156 6.8555 9.1367 6.8555 0.88281 0 1.7852-0.125 2.6719-0.38281l35.566-10.387c8.2422 12.324 27.883 45.789 30.785 88.543 3.1406 46.555-13.281 88.113-18.281 99.535l-54.422 22.844c-4.8516 2.0352-7.1289 7.6172-5.0977 12.469 1.5312 3.6445 5.0625 5.8398 8.7852 5.8398 1.2266 0 2.4766-0.24219 3.6797-0.74609l50.164-21.055c7.7148 14.039 23.98 48.027 23.98 85.008 0 41.52-18.051 81.492-23.512 92.629l-57.684 21.766c-4.9219 1.8555-7.4062 7.3516-5.5469 12.273 1.4375 3.8125 5.0625 6.1641 8.9102 6.1641 1.1172 0 2.2539-0.19922 3.3594-0.61328l53.871-20.328c6.2695 10.805 18.074 34.961 18.074 63.652-0.003906 32.992-14.402 62.008-19.109 70.613z"/>
</svg>
