<?xml version="1.0" encoding="UTF-8"?>
<svg width="1200pt" height="1200pt" version="1.1" viewBox="0 0 1200 1200" xmlns="http://www.w3.org/2000/svg">
 <path d="m1088.4 510.8-447.91-115.56c-15.051-3.8828-25.562-17.309-25.562-32.648 0-4.7305 0.98047-9.3125 2.918-13.621 16.344-36.406 32.832-93.535 18.574-158.96-20.078-92.113-94.84-190.01-193.84-190.01-99.004 0-173.77 97.895-193.84 190.01-8.7773 40.266-6.9102 81.941 5.5469 123.87 6.9922 23.531-0.71484 49.406-19.633 65.914l-35.605 31.07c-72.035 62.867-113.35 153.42-113.35 248.45v498.21c0 23.422 19.219 42.477 42.844 42.477h562.95c23.625 0 42.844-19.055 42.844-42.48v-522.68l250.01 63.133c10.484 2.6445 21.363 0.36328 29.863-6.2578 8.3984-6.5391 13.215-16.367 13.215-26.961v-10.039l43.762 11.051c10.473 2.6445 21.359 0.36328 29.863-6.2578 8.3984-6.5391 13.215-16.367 13.215-26.961v-88.57c0-15.609-10.633-29.25-25.855-33.176zm-645.83-263.88c-24.879 0-71.211 4.8047-117.09 34.867-1.7305-37.766 4.0547-73.863 17.395-107.75 28.047-71.215 64.383-112.06 99.691-112.06 35.312 0 71.648 40.844 99.688 112.06 13.352 33.895 19.133 70.012 17.395 107.8-24.656-16.055-64.762-34.922-117.08-34.922zm-43.59 61.992c8.5352 0.20703 14.859 4.6992 18.742 13.926l12.184 42.176h-52.164c-22.77 0-42.438-15.984-46.77-38.008-1.1914-6.0703-2.1719-12.098-3-18.094zm55.777 872.04h-24.371v-796.88h24.371zm12.66-858.11c2.3672-8.1992 10.074-13.926 18.742-13.926h71.008c-0.82812 5.9961-1.8086 12.023-3.0039 18.094-4.3281 22.023-23.996 38.008-46.766 38.008h-52.168zm247.86 834.68c0 12.918-10.672 23.43-23.797 23.43h-217.68v-34.633h131.93c23.02 0 41.754-18.57 41.754-41.398v-470.76c0-5.0625 2.3164-9.7695 6.3516-12.914 4.1445-3.2305 9.4688-4.3438 14.586-3.0469l46.855 11.832zm-241.47-750.68v-22.773h33.594c31.848 0 59.375-22.453 65.453-53.383 11.395-57.941 7.0625-112.99-12.875-163.61-18.25-46.359-57.777-124.13-117.41-124.13-59.625 0-99.156 77.77-117.41 124.13-19.938 50.621-24.266 105.67-12.875 163.61 6.082 30.934 33.613 53.383 65.457 53.383h33.594l0.003907 796.89h-282.81c-13.121 0-23.797-10.512-23.797-23.434v-151.86c7.8438 39.648 18.082 78.852 30.703 117.39 2.1602 6.5938 7.0312 12.047 13.363 14.949 6.5156 2.1758 13.289 2.2617 20.301 0.35547 21.465-8.9297 44.086-13.48 67.234-13.516 18.156-0.039062 36.32 2.7773 53.77 8.3555 8.9648 2.8633 18.688 0.53516 25.363-6.0859 6.6406-6.582 9.0547-16.203 6.2969-25.105-25.668-82.895-40.258-168.83-43.363-255.43-3.4688-96.797 7.3828-193.39 32.254-287.09 1.3477-5.082-1.6797-10.301-6.7617-11.648-5.0859-1.3516-10.297 1.6797-11.648 6.7617-25.352 95.516-36.414 193.98-32.879 292.66 2.6406 73.73 13.484 146.99 32.219 218.36-18.539-7.2812-42.734-13.547-71.242-13.547h-0.33203c-34.586 0.058593-62.855 9.418-80.73 17.43-19.82-72.758-31.223-147.53-33.922-222.93-0.41797-11.75-0.63281-23.645-0.62891-35.355v-151.91c0-89.527 38.938-174.85 106.83-234.1l35.605-31.07c24.52-21.395 34.473-55.031 25.367-85.691-11.531-38.816-13.277-77.301-5.1953-114.39 14.754-67.668 75.371-175.02 175.24-175.02 99.867 0 160.48 107.35 175.23 175.02 13.156 60.355-2.168 113.31-17.34 147.1-3.0469 6.7773-4.5898 13.984-4.5898 21.422 0 24.027 16.387 45.039 39.852 51.09l447.91 115.56c6.8086 1.7578 11.566 7.8125 11.566 14.734v88.57c-0.88672 11.754-7.8828 16.008-19.367 14.75l-48.426-12.23v-58.887c0-15.605-10.633-29.246-25.855-33.176"/>
</svg>
