<?xml version="1.0" encoding="UTF-8"?>
<svg width="1200pt" height="1200pt" version="1.1" viewBox="0 0 1200 1200" xmlns="http://www.w3.org/2000/svg">
 <g>
  <path d="m281.29 799.58 78.434 49.148c4.8828 3.0586 10.477 4.5898 16.074 4.5898 5.5938 0 11.191-1.5312 16.074-4.5898l78.43-49.148c8.8164-5.5273 14.082-15.016 14.082-25.379v-51.012c0-16.539-13.527-29.996-30.156-29.996h-156.86c-16.629 0-30.156 13.453-30.156 29.996v51.012c0 10.367 5.2617 19.855 14.082 25.379zm4.9648-76.395c0-6.0391 4.9844-10.949 11.109-10.949h156.86c6.125 0 11.109 4.9102 11.109 10.949v51.012c0 3.7656-1.9258 7.2188-5.1484 9.2383l-78.43 49.148c-3.6211 2.2695-8.3008 2.2695-11.926 0l-78.434-49.148c-3.2227-2.0195-5.1484-5.4727-5.1484-9.2383z"/>
  <path d="m375.8 795c16.754 0 30.379-13.555 30.379-30.215 0-16.66-13.629-30.215-30.379-30.215s-30.379 13.555-30.379 30.215c0 16.66 13.629 30.215 30.379 30.215zm0-41.379c6.25 0 11.332 5.0078 11.332 11.168 0 6.1562-5.082 11.168-11.332 11.168-6.2461 0-11.332-5.0078-11.332-11.168 0.003906-6.1602 5.082-11.168 11.332-11.168z"/>
  <path d="m1151.8 898.96c-4.1758-120.65-10.98-234.81-19.406-332.56-6.8477-93.332-22.156-190.75-43.762-291.22-19.543-52.105-53.016-84.898-54.43-86.266-18.566-17.973-40.555-32.531-65.363-43.262l-200.86-89.676c-0.72266-2.7461-1.5508-5.5234-2.5898-8.3477-8.2266-22.391-23.262-37.188-34.438-45.664-0.089843-0.066406-0.17969-0.13672-0.26953-0.19922-1.6992-1.207-3.6367-1.7305-5.6094-1.7578l-250.08-0.0078125c-1.9492 0.039062-3.9102 0.55078-5.6094 1.7578-0.09375 0.0625-0.18359 0.13281-0.26953 0.19922-11.176 8.4805-26.211 23.273-34.438 45.664-1.0391 2.8203-1.8633 5.6016-2.5898 8.3477l-200.86 89.68c-24.809 10.73-46.797 25.289-65.363 43.262-1.4141 1.3711-34.887 34.164-54.434 86.266-26.973 71.902-52.949 328.41-63.16 623.58-2.2148 39.223 1.3789 78.453 10.684 116.6 7.4023 30.348 18.41 59.855 32.723 87.703 6.2539 12.168 18.414 20.188 31.777 21.582 4.5273 11.949 9.1445 24.062 13.781 36.219l6.2656 16.426c3.4727 9.1133 10.359 16.207 19.395 19.984 4.3672 1.8281 9.043 2.7344 13.715 2.7344 4.9062 0 9.8125-1.0039 14.363-3.0117l66.945-29.52h684.23l66.945 29.52c4.5508 2.0078 9.457 3.0117 14.363 3.0117 4.6719 0 9.3438-0.91016 13.715-2.7344 9.0352-3.7734 15.926-10.871 19.395-19.984l6.2656-16.426c4.6367-12.152 9.2539-24.27 13.781-36.219 13.363-1.3945 25.527-9.4102 31.777-21.582 14.309-27.848 25.32-57.355 32.723-87.703 9.2969-38.152 12.891-77.383 10.684-116.39zm-39.418-344.32-72.43-14.371c-1.6523-0.32812-2.8516-1.7539-2.8516-3.3945v-35.59c0-1.3984 0.79297-2.2539 1.2617-2.6445 0.49609-0.40625 1.5391-1.0352 3.0156-0.75l66.883 13.273c1.3984 13.934 2.7773 28.43 4.1211 43.477zm-12.73-120.12c-40.32-0.49609-72.973-33.141-72.973-73.219 0-30.848 19.23-57.891 47.719-68.52 8.043 27.074 16.836 74.879 25.254 141.74zm-328.57-356.3 184.4 82.328v48.566l-191-89.547c3.7969-12.516 6-26.301 6.5977-41.348zm-51.922-13.301 12.383-36.75c6.0898 6.6797 12.027 15.289 15.973 26.023 8.5234 23.199 3.0234 43.945-0.26562 56.352-11.008 41.523-44.414 71.98-70.492 90.219-12.008 8.3984-28.738 6.2656-38.086-4.8633l-23.469-27.941c32.262-16.523 78.922-48.469 103.92-102.94 0.003906-0.03125 0.019531-0.0625 0.035156-0.097656zm-5.1719-45.871-9.8594 32.684h-208.2l-9.8555-32.684zm-469.41 141.5 184.4-82.328c-0.16797 9.0391 3.3359 25.438 6.6016 41.348l-191 89.547zm-114.75 945.16c-8.6992 0.94922-17.238-3.625-21.211-11.359-13.625-26.516-24.109-54.613-31.156-83.512-8.8594-36.32-12.285-73.672-10.164-111.22 11.852-342.54 40.43-560.34 61.965-617.75 17.977-47.922 49.539-78.969 49.848-79.273 13.535-13.105 29.102-24.23 46.418-33.184v788.53c0 35.57 6.3477 70.398 18.879 103.63-13.871 10.125-28.797 18.715-44.457 25.574-22.16 9.7031-45.75 15.949-70.121 18.57zm53.457 73.848c-4.1914 1.8477-8.8281 1.8945-13.051 0.12891-4.168-1.7422-7.3438-5.0039-8.9375-9.1875l-6.2656-16.43c-3.9531-10.363-7.8867-20.684-11.773-30.918 8.0938-1.2305 16.09-2.8516 23.98-4.832l23.93 57.762zm25.316-11.168-22.961-55.426c7.332-2.4297 14.559-5.1602 21.641-8.2461l22.707 54.242zm37.781-19.602-21.926-52.375c7.5156-3.9766 14.832-8.332 21.926-13.047zm43.449-0.36719h-24.402v-74.066h24.402zm43.449 0h-24.402v-74.066h24.402zm43.449 0h-24.402v-74.066h24.402zm43.449 0h-24.402v-74.066h24.402zm43.449 0h-24.398v-74.066h24.398zm43.449 0h-24.402v-74.066h24.402zm0-93.117h-244.68c-11.832-31.215-17.832-63.938-17.832-97.367v-727.79l197.76-92.719c15.184 33.156 41.809 58.273 64.742 75.129v842.75zm41.711 93.117h-22.664v-925.38c4.4922 1.3555 9.1016 2.0391 13.688 2.0391 3.0156 0 6.0234-0.30859 8.9766-0.88281zm-25.48-947.66c-26.082-18.242-59.484-48.699-70.492-90.227-3.2891-12.398-8.7891-33.145-0.26562-56.344 3.9453-10.734 9.8828-19.344 15.973-26.023l12.383 36.75c0.015625 0.035156 0.027344 0.0625 0.042969 0.097656 24.996 54.477 71.66 86.422 103.92 102.94l-23.469 27.941c-9.3555 11.129-26.09 13.262-38.094 4.8633zm67.191 947.66h-22.664v-932.61l22.664-24.949zm-85.148-1077.6h189.35c-25.73 44.676-67.707 70.574-94.676 83.43-26.973-12.859-68.949-38.754-94.676-83.43zm130.34 1077.6h-26.141v-74.066h26.141zm43.449 0h-24.402v-74.066h24.402zm43.449 0h-24.398v-74.066h24.398zm43.449 0h-24.402v-74.066h24.402zm43.449 0h-24.402v-74.066h24.402zm41.715 0h-22.664v-74.066h22.664zm43.445 0h-24.402v-74.066h24.402zm39.977 0h-20.926v-74.066h20.926zm3.0234-93.117h-328.09v-864.44l14.523 17.289c15.895 18.922 43.23 22.457 63.59 8.2188 23.996-16.785 53.676-43.188 70.051-78.941l197.77 92.719v727.79c-0.003906 33.43-6.0039 66.148-17.836 97.367zm16.023 28.062c7.0938 4.7148 14.414 9.0703 21.926 13.047l-21.926 52.375zm16.391 75.594 22.707-54.242c7.082 3.0898 14.309 5.8164 21.641 8.2461l-22.961 55.426zm74.961-4.8945-6.2656 16.43c-1.5938 4.1836-4.7656 7.4492-8.9375 9.1875-4.2266 1.7656-8.8594 1.7188-13.051-0.12891l-7.8867-3.4766 23.93-57.762c7.8945 1.9766 15.887 3.6016 23.98 4.832-3.8828 10.234-7.8125 20.555-11.77 30.918zm77.57-143.23c-7.0469 28.895-17.527 56.992-31.156 83.512-3.9727 7.7305-12.504 12.293-21.215 11.359-24.371-2.6172-47.961-8.8672-70.117-18.566-15.664-6.8594-30.586-15.445-44.457-25.574 12.531-33.23 18.879-68.055 18.879-103.63v-788.53c17.312 8.9531 32.879 20.074 46.41 33.176 0.30078 0.29297 28.797 28.348 47.059 72.242-36.023 13.309-60.371 47.465-60.371 86.457 0 50.891 41.695 92.293 92.945 92.293l5.6367 37.754-61.129-12.133c-6.6875-1.332-13.547 0.38672-18.809 4.7109-5.2266 4.2891-8.2227 10.621-8.2227 17.363v35.59c0 10.699 7.6484 19.984 18.191 22.074l77.859 15.449c7.6914 90.441 14.309 199.49 18.668 325.43 2.1133 37.352-1.3086 74.703-10.172 111.02z"/>
  <path d="m902.62 693.19h-156.86c-16.629 0-30.156 13.453-30.156 29.996v51.012c0 10.367 5.2656 19.852 14.082 25.379l78.43 49.148c4.8828 3.0586 10.48 4.5898 16.074 4.5898s11.191-1.5312 16.074-4.5898l78.43-49.148c8.8203-5.5234 14.082-15.012 14.082-25.379v-51.012c0.007812-16.539-13.523-29.996-30.152-29.996zm11.109 81.008c0 3.7656-1.9258 7.2188-5.1484 9.2383l-78.43 49.148c-3.6211 2.2695-8.3008 2.2695-11.926 0l-78.43-49.148c-3.2227-2.0195-5.1484-5.4727-5.1484-9.2383v-51.012c0-6.0391 4.9844-10.949 11.109-10.949h156.86c6.125 0 11.109 4.9102 11.109 10.949z"/>
  <path d="m824.2 734.57c-16.754 0-30.379 13.555-30.379 30.215 0 16.66 13.629 30.215 30.379 30.215s30.379-13.555 30.379-30.215c0-16.656-13.625-30.215-30.379-30.215zm0 41.383c-6.25 0-11.332-5.0078-11.332-11.168 0-6.1562 5.082-11.168 11.332-11.168 6.2461 0 11.332 5.0078 11.332 11.168 0 6.1602-5.082 11.168-11.332 11.168z"/>
 </g>
</svg>
