<?xml version="1.0" encoding="UTF-8"?>
<svg width="1200pt" height="1200pt" version="1.1" viewBox="0 0 1200 1200" xmlns="http://www.w3.org/2000/svg">
 <path d="m900 309.38c0-50.383-18.039-102.42-35.484-152.75-7.7539-22.367-15.066-43.52-20.766-64.211v-54.918c0-15.508-12.617-28.125-28.125-28.125h-431.25c-15.508 0-28.125 12.617-28.125 28.125v54.93c-5.6992 20.691-13.012 41.832-20.766 64.211-17.445 50.312-35.484 102.35-35.484 152.45l-9.375 309.66c0 112.78 11.633 451.55 37.836 546.25 4.1719 15.086 19.668 25.621 37.688 25.621h121.35c19.332 0 36.141-16.547 37.48-36.891 28.547-433.97 48.148-663.6 65.363-767.06 2.3438-9.2891 5.6992-16.039 9.6562-19.547 3.957 3.4883 7.2734 10.086 9.5078 18.789 17.371 104.22 36.965 333.85 65.512 767.82 1.3398 20.344 18.141 36.891 37.48 36.891h121.35c18.02 0 33.508-10.539 37.688-25.621 26.203-94.699 37.836-433.47 37.836-546.54zm-525-271.88c0-5.1758 4.1992-9.375 9.375-9.375h431.25c5.1758 0 9.375 4.1992 9.375 9.375v46.875h-175.75c-5.2578-7.4336-10.039-15.027-11.82-29.289-0.64844-5.1367-5.3164-8.7188-10.461-8.1367-5.1367 0.63672-8.7852 5.3242-8.1367 10.461 1.4688 11.758 4.6172 20.148 8.2852 26.965h-53.691c3.3945-6.6094 6.2891-14.699 7.6797-25.801 0.63672-5.1367-3-9.8242-8.1367-10.461-5.1758-0.60156-9.8281 3.0078-10.465 8.1367-1.6875 13.52-6.0664 21.047-10.996 28.125h-176.5zm-28.461 1122.5c-24.516-88.594-37.164-419.54-37.164-540.96l9.375-309.66c0-47.23 17.512-97.754 34.453-146.61 7.1523-20.645 13.883-40.238 19.461-59.645h17.98c-5.1562 17.289-11.242 34.969-17.664 53.504-17.441 50.324-35.48 102.36-35.48 152.46l-9.375 309.66c0 102.88 18.496 436.76 42.195 553.12h-4.1719c-8.1172 0-17.465-4.0859-19.609-11.879zm347.19-7.4805c-28.602-434.62-48.254-664.81-65.887-770.44-4.6484-18.414-12.871-30.039-24.422-34.566-2.1953-0.86328-4.6328-0.86328-6.8359 0-11.551 4.5195-19.773 16.152-24.582 35.324-17.477 104.87-37.133 335.04-65.738 769.68-0.67188 10.312-9.4453 19.359-18.766 19.359h-98.008c-23.859-110.91-42.617-449.53-42.617-552.84l9.375-309.66c0-47.23 17.512-97.754 34.453-146.61 7.1523-20.645 13.883-40.238 19.461-59.645h129.7c-3.1875 7.1172-5.4844 15.93-5.4844 28.125 0 19.707 2.4844 29.82 4.8828 39.609 2.2891 9.3359 4.4609 18.16 4.4258 36.523-0.027344 16.742-5.0234 23.57-11.363 32.195-6.5625 8.9453-14.008 19.086-16.547 39.355-0.63672 5.1367 3 9.8242 8.1367 10.461 0.39453 0.046875 0.78906 0.074219 1.1719 0.074219 4.6602 0 8.6992-3.4688 9.2891-8.2109 1.9297-15.43 7.0859-22.461 13.059-30.59 7.0117-9.5625 14.961-20.383 15-43.246 0.039062-20.645-2.5039-31.012-4.9609-41.023-2.2344-9.1133-4.3438-17.711-4.3438-35.148 0-13.762 3.4141-21.02 8.1562-28.125h78.133c4.3398 6.75 7.3867 13.949 7.3867 26.961 0 17.438-2.1094 26.035-4.3398 35.137-2.457 10.016-5 20.383-4.9609 41.027 0.039062 22.867 7.9883 33.695 15 43.246 5.9727 8.1289 11.129 15.148 13.059 30.59 0.58984 4.7422 4.6328 8.2109 9.2891 8.2109 0.38281 0 0.77734-0.027344 1.1719-0.074219 5.1367-0.63672 8.7852-5.3242 8.1367-10.461-2.5391-20.27-9.9766-30.414-16.547-39.355-6.3359-8.625-11.336-15.441-11.363-32.195-0.039063-18.367 2.1367-27.18 4.4258-36.523 2.3984-9.7891 4.8828-19.902 4.8828-39.609 0-11.523-2.0234-20.055-4.9414-26.961h129.21c5.5781 19.406 12.309 39.008 19.461 59.645 16.949 48.859 34.461 99.383 34.461 146.89l9.375 309.09c0 103.59-18.758 442.22-42.617 553.12h-98.008c-9.3203 0-18.094-9.0469-18.77-19.359zm159.73 7.4805c-2.1445 7.793-11.492 11.879-19.609 11.879h-4.1719c23.699-116.36 42.195-450.25 42.195-553.41l-9.375-309.09c0-50.383-18.039-102.42-35.484-152.75-6.4219-18.535-12.508-36.215-17.664-53.504h17.98c5.5781 19.406 12.309 39.008 19.461 59.645 16.945 48.852 34.457 99.375 34.457 146.89l9.375 309.09c0 121.71-12.648 452.65-37.164 541.25z"/>
</svg>
