<?xml version="1.0" encoding="UTF-8"?>
<svg width="1200pt" height="1200pt" version="1.1" viewBox="0 0 1200 1200" xmlns="http://www.w3.org/2000/svg">
 <g>
  <path d="m612.26 47.832c-8.0938 0-14.684 6.3164-14.684 14.078 0 7.7617 6.5859 14.082 14.684 14.082 8.0977 0 14.684-6.3164 14.684-14.082 0-7.7617-6.5859-14.078-14.684-14.078z"/>
  <path d="m369.49 71.746h-26.941c-5.4336 0-9.8359-4.4023-9.8359-9.8359s4.4023-9.8359 9.8359-9.8359h186.32v-52.074h-226.08c-4.5352 77.406-8.1836 155.73-10.957 233.3l77.66-56.812z"/>
  <path d="m909.06 258.34-94.199-68.91c-2.5312-1.8516-4.0273-4.8008-4.0273-7.9414v-109.74h-125.02c-5.4336 0-9.8359-4.4023-9.8359-9.8359s4.4023-9.8359 9.8359-9.8359h171.63c5.4336 0 9.8359 4.4023 9.8359 9.8359s-4.4023 9.8359-9.8359 9.8359h-26.945v104.75l77.66 56.812c-2.7695-77.578-6.418-155.9-10.953-233.31h-348.67v205.4c0 5.4336-4.4023 9.8359-9.8359 9.8359s-9.8359-4.4023-9.8359-9.8359v-133.65h-139.7v109.74c0 3.1367-1.4961 6.0859-4.0273 7.9414l-94.199 68.91c-10.391 312.27-6.4141 629 11.852 941.66h190.38l97.059-828.34c0.58203-4.957 4.7773-8.6914 9.7695-8.6914s9.1875 3.7344 9.7695 8.6914l97.055 828.34h190.38c18.27-312.67 22.246-629.39 11.855-941.66zm-456.18 913.51h-110.34c-5.4336 0-9.8359-4.4023-9.8359-9.8359 0-5.4336 4.4023-9.8359 9.8359-9.8359h110.34c5.4336 0 9.8359 4.4023 9.8359 9.8359 0 5.4297-4.4062 9.8359-9.8359 9.8359zm159.37-1076.2c-18.945 0-34.355-15.141-34.355-33.754 0-18.609 15.41-33.75 34.355-33.75 18.945 0 34.355 15.141 34.355 33.75 0 18.613-15.41 33.754-34.355 33.754zm245.19 1076.2h-110.34c-5.4336 0-9.8359-4.4023-9.8359-9.8359 0-5.4336 4.4023-9.8359 9.8359-9.8359h110.34c5.4336 0 9.8359 4.4023 9.8359 9.8359 0 5.4297-4.4062 9.8359-9.8359 9.8359z"/>
 </g>
</svg>
