<?xml version="1.0" encoding="UTF-8"?>
<svg width="1200pt" height="1200pt" version="1.1" viewBox="0 0 1200 1200" xmlns="http://www.w3.org/2000/svg">
 <path d="m985.6 538.55c-9.5781-152.84-50.281-404.82-52.863-420.7l0.003906-85.941c0-17.594-14.312-31.906-31.906-31.906h-601.67c-17.594 0-31.906 14.312-31.906 31.906v85.941c-2.5781 15.875-43.277 267.86-52.859 420.7-8.5352 136.43 28.191 514.47 39.648 627.07 1.9727 19.602 18.328 34.383 38.047 34.383h210.76c5.2578 0 9.5234-4.2656 9.5234-9.5234v-69.332c0-8.7695 2.6602-17.156 7.6875-24.242 9.6641-13.578 27.355-42.199 37.258-81.305 10.141-40.121 30.59-320.82 42.672-496.9 12.082 176.08 32.531 456.79 42.672 496.91 9.9062 39.105 27.594 67.723 37.254 81.289 5.0352 7.0938 7.6953 15.484 7.6953 24.254v40.594c0 21.098 17.164 38.262 38.262 38.262h182.02c19.719 0 36.078-14.781 38.047-34.367 11.461-112.61 48.184-490.65 39.648-627.09zm-664.22-420.7c-2.582 15.875-43.285 267.86-52.863 420.7-9.1562 146.47 33.531 568.3 41.219 642.41h-17.641c-9.8984 0-18.105-7.4102-19.098-17.25-11.418-112.25-48.031-488.98-39.586-623.96 9.7852-156.11 52.344-416.96 52.773-419.58 0.082031-0.50781 0.125-1.0234 0.125-1.5391v-86.711c0-7.0898 5.7656-12.855 12.855-12.855h22.215zm605.62 1045.9c-0.98828 9.8281-9.1992 17.238-19.094 17.238h-17.641c7.6875-74.102 50.375-495.93 41.215-642.41-9.5781-152.84-50.281-404.82-52.863-420.7v-98.801h22.215c7.0898 0 12.855 5.7695 12.855 12.855v86.715c0 0.51562 0.042969 1.0312 0.125 1.5391 0.42969 2.6172 42.988 263.45 52.773 419.58 8.4492 134.98-28.164 511.71-39.586 623.98z"/>
</svg>
