<?xml version="1.0" encoding="UTF-8"?>
<svg width="1200pt" height="1200pt" version="1.1" viewBox="0 0 1200 1200" xmlns="http://www.w3.org/2000/svg">
 <g>
  <path d="m689.2 338.4 164.55-101.9c-8.0391-5.1797-16.305-10.066-24.766-14.668l-147.75 91.504c-1.5547 0.96484-3.3477 1.4727-5.1797 1.4727h-66.215v25.512h72.648c2.3711-0.003906 4.6953-0.66797 6.7188-1.918z"/>
  <path d="m518.77 313.33-147.75-91.504c-8.4609 4.6055-16.723 9.4922-24.766 14.672l164.56 101.9c2.0156 1.25 4.3359 1.9062 6.7109 1.9062h72.648v-25.512l-66.219 0.003906c-1.832 0.003906-3.625-0.50391-5.1797-1.4688z"/>
  <path d="m808.45 211.4c-19.68-9.2852-40.332-17.102-61.836-23.367-44.727-13.031-94.059-19.668-146.63-19.723-52.551 0.050781-101.88 6.6875-146.61 19.723-21.5 6.2656-42.156 14.082-61.836 23.367l135.2 83.73h146.5z"/>
  <path d="m124.93 984.48 159.44 33.996 2.4062-36.375-155.25-33.102c-2.3164 12.395-4.5273 24.277-6.6016 35.48z"/>
  <path d="m500.8 717.69v-226.79c0-7.582-6.168-13.754-13.754-13.754-7.582 0-13.754 6.168-13.754 13.754v226.79c0 7.582 6.168 13.754 13.754 13.754 7.5859-0.003906 13.754-6.1719 13.754-13.754z"/>
  <path d="m699.2 490.89v226.79c0 7.582 6.168 13.754 13.754 13.754 7.582 0 13.754-6.168 13.754-13.754v-226.79c0-7.582-6.168-13.754-13.754-13.754-7.582 0-13.754 6.1719-13.754 13.754z"/>
  <path d="m1068.5 949-155.24 33.102 2.4062 36.375 159.44-33.996c-2.0781-11.203-4.2852-23.086-6.6055-35.48z"/>
  <path d="m871.12 494.1c5.4141-0.34375 10.105 3.7461 10.465 9.168l30.336 459.01 152.93-32.605c-31.438-167.33-79.211-411.94-92.457-444.02-16.074-38.934-97.664-132.48-120.09-157.8-5.9727 4.0586-12.215 8.2422-18.727 12.562-15.809 59.992-45.121 116.14-87.188 167.02v210.27c0 18.43-14.996 33.426-33.426 33.426-18.43 0-33.426-14.996-33.426-33.426v-226.79c0-18.43 14.996-33.426 33.426-33.426 14.129 0 26.207 8.8242 31.094 21.242 28.668-37.969 50.137-78.754 64.145-121.72-69.262 44.633-133.85 81.504-134.55 81.906-4.7188 2.6914-10.723 1.0391-13.418-3.6758-2.6914-4.7188-1.043-10.727 3.6758-13.418 0.76562-0.43359 77.398-44.18 152.99-93.945 138.21-90.992 148.96-119.98 148.96-126.69 0-16.902-51.797-62.602-150.8-117.25-89.508-49.422-177.93-83.926-215.04-83.926s-125.54 34.504-215.04 83.91c-99.004 54.645-150.8 100.35-150.8 117.25 0 6.7188 10.746 35.711 149.03 126.74 75.59 49.758 152.15 93.461 152.92 93.898 4.7188 2.6914 6.3672 8.6992 3.6758 13.418-1.8125 3.1836-5.1367 4.9688-8.5547 4.9688-1.6484 0-3.3242-0.41406-4.8633-1.2891-0.70703-0.40234-65.293-37.273-134.55-81.906 14.008 42.973 35.48 83.758 64.145 121.72 4.8828-12.414 16.965-21.242 31.094-21.242 18.43 0 33.426 14.996 33.426 33.426v226.79c0 18.43-14.996 33.426-33.426 33.426-18.43 0-33.426-14.996-33.426-33.426v-210.27c-42.066-50.871-71.379-107.02-87.188-167.02-6.5117-4.3164-12.754-8.5039-18.727-12.562-22.434 25.32-104.02 118.87-120.09 157.8-13.242 32.086-61.02 276.7-92.457 444.02l152.93 32.605 30.336-459.01c0.35938-5.4219 5.0703-9.5156 10.465-9.168 5.418 0.35938 9.5234 5.043 9.168 10.465l-45.961 695.44h298.08v-840.02h-72.648c-6.0391 0-11.941-1.6797-17.066-4.8555l-189.42-117.31c-9.4062-5.8359-15.145-15.922-15.344-26.984-0.20312-11.062 5.1602-21.348 14.352-27.516 80.109-53.738 174.96-79.863 289.96-79.863s209.85 26.125 289.96 79.863c9.1914 6.168 14.559 16.457 14.352 27.523-0.19922 11.059-5.9336 21.141-15.34 26.969l-189.41 117.31c-5.1406 3.1758-11.039 4.8555-17.074 4.8555h-72.648l0.007813 840.02h298.08l-45.957-695.44c-0.36328-5.4219 3.7383-10.105 9.1602-10.461z"/>
  <path d="m878.61 221.09c3.6992-2.293 5.957-6.2539 6.0352-10.605 0.078124-4.3555-2.0312-8.4062-5.6445-10.828-76.762-51.496-168.02-76.531-279-76.531-110.98 0-202.24 25.031-279 76.531-3.6133 2.4258-5.7227 6.4688-5.6445 10.816 0.078126 4.3555 2.3359 8.3281 6.0352 10.621l6.4414 3.9883c36.055-24.406 76.402-43.223 120.05-55.941 46.512-13.551 97.688-20.453 152.11-20.504 54.445 0.054687 105.62 6.9531 152.13 20.504 43.645 12.719 83.988 31.535 120.04 55.941z"/>
 </g>
</svg>
