<?xml version="1.0" encoding="UTF-8"?>
<svg width="1200pt" height="1200pt" version="1.1" viewBox="0 0 1200 1200" xmlns="http://www.w3.org/2000/svg">
 <g>
  <path d="m568.94 1138c7.0742 0.19141 14.148 0.32031 21.227 0.37891v-666.92h-21.227z"/>
  <path d="m568.94 1199.6c7.0781 0.19531 14.152 0.32812 21.227 0.39062v-41.824c-7.0742-0.058593-14.152-0.17969-21.227-0.36719z"/>
  <path d="m394.96 1181.2c50.871 9.4258 102.55 15.355 154.31 17.699v-41.781c-52.129-2.2812-104.07-8.0742-155.09-17.344 0.22266 13.832 0.48828 27.633 0.78516 41.426z"/>
  <path d="m568.94 446v5.8242h21.227v-53.68c-13.375 12-21.227 29.211-21.227 47.855z"/>
  <path d="m335.14 1147.9-1.2383 0.11719c-10.574 0.94531-21.074-0.50391-30.816-4.0781v14.895c0 15.75 11.957 29.211 27.227 30.645 4.5 0.42188 9.0859 0.52734 13.594 0.3125 10.797-0.51172 21.328-2.7969 31.387-6.8047-0.33594-15.598-0.62109-31.223-0.86719-46.867-10.449 5.418-23.645 10.195-39.285 11.781z"/>
  <path d="m924.48 1072.2c-6.5078-97.098-12.336-192-17.332-282.05l-1.0391-18.824c-9.0234-163.96-13.141-238.79-68.195-303.33-20.043-23.492-44.863-43.391-73.77-59.148-11.148-6.0781-19.367-16.625-22.547-28.934-3.1641-12.27-1.0938-25.426 5.6914-36.09 17.887-28.137 38.859-73.168 37.148-127.9-3.1914-102.15-79.723-215.97-184.44-215.97s-181.25 113.82-184.44 215.96c-1.7109 54.727 19.262 99.762 37.148 127.9 6.7852 10.664 8.8594 23.82 5.6914 36.09-3.1797 12.309-11.395 22.855-22.547 28.934-28.906 15.758-53.727 35.656-73.77 59.148-55.059 64.539-59.176 139.37-68.195 303.33l-1.0391 18.824c-4.9961 90.059-10.824 184.96-17.332 282.05-1.043 15.543 4.7422 30.699 15.871 41.578 2.1211 2.0742 4.3945 3.9375 6.7891 5.5977 0.35156 0.20312 0.6875 0.42188 1.0039 0.66797 9.6953 6.3945 21.277 9.4102 32.969 8.3633l1.0391-0.097656c17.621-1.7812 31.504-8.5547 40.945-14.832-1.2734-97.742-0.85547-196.09 1.3125-293.34 1.9688-88.5 5.4141-178.27 10.234-266.81 0.29687-5.4258 5.0156-9.5664 10.359-9.2852 5.4258 0.29688 9.582 4.9336 9.2852 10.359-4.8125 88.332-8.2461 177.89-10.211 266.18-2.207 99.16-2.5938 199.46-1.2188 299.09 51.086 9.457 103.13 15.324 155.38 17.629l-0.007812-691.34c0-22.805 9.0039-43.973 24.512-59.441-66.238-15.035-116.54-85.945-116.54-170.89 0-95.852 64.043-173.83 142.76-173.83s142.76 77.98 142.76 173.83c0 91.828-58.777 167.25-132.93 173.43l0.003907 749.32c66.121-0.56641 132.07-6.8164 196.27-18.699 1.375-99.629 0.98828-199.93-1.2188-299.09-1.9648-88.289-5.3984-177.85-10.211-266.18-0.29688-5.4258 3.8594-10.062 9.2852-10.359 5.4805-0.29688 10.062 3.8594 10.359 9.2852 4.8242 88.543 8.2656 178.31 10.234 266.81 2.168 97.25 2.5859 195.6 1.3125 293.34 9.4414 6.2773 23.328 13.051 40.969 14.836l1.0156 0.097657c11.695 1.0508 23.262-1.9609 32.949-8.3477 0.33203-0.25391 0.67969-0.48047 1.0469-0.69531 2.3867-1.6562 4.6523-3.5195 6.7656-5.5859 11.125-10.883 16.914-26.039 15.871-41.582zm-436.57-672.09c0-5.4336 4.4062-9.8359 9.8359-9.8359 5.4336 0 9.8359 4.4062 9.8359 9.8359v205c0 5.4336-4.4062 9.8359-9.8359 9.8359-5.4336 0-9.8359-4.4062-9.8359-9.8359zm224.17 205c0 5.4336-4.4062 9.8359-9.8359 9.8359-5.4336 0-9.8359-4.4062-9.8359-9.8359v-205c0-5.4336 4.4062-9.8359 9.8359-9.8359 5.4336 0 9.8359 4.4062 9.8359 9.8359z"/>
  <path d="m723.09 215.66c0 85.141-55.109 154.16-123.09 154.16s-123.09-69.02-123.09-154.16 55.109-154.16 123.09-154.16 123.09 69.02 123.09 154.16"/>
  <path d="m866.1 1148.1-1.2148-0.11719c-15.66-1.582-28.863-6.3672-39.312-11.785-0.24609 15.645-0.53516 31.27-0.86719 46.867 10.059 4.0078 20.59 6.2891 31.387 6.8047 4.5273 0.21484 9.0898 0.10938 13.594-0.3125 15.27-1.4297 27.227-14.891 27.227-30.645v-14.898c-7.793 2.8594-16.066 4.3672-24.473 4.3672-2.1055 0-4.2227-0.09375-6.3398-0.28125z"/>
  <path d="m609.84 1200c65.359-0.57422 130.94-6.8945 195.21-18.805 0.29297-13.789 0.5625-27.598 0.78516-41.426-64.168 11.645-129.99 17.82-195.99 18.402l0.003906 41.828z"/>
 </g>
</svg>
