<?xml version="1.0" encoding="UTF-8"?>
<svg width="1200pt" height="1200pt" version="1.1" viewBox="0 0 1200 1200" xmlns="http://www.w3.org/2000/svg">
 <g>
  <path d="m1133.3 843.36c-10.176-36.023-23.184-71.328-35.496-106.66-36.637-105.13-74.172-210.31-101.94-318.23-11.977-46.535-19.391-90.383-21.227-138.25-1.2461-32.531 2.0508-56.508-33.938-63.875-42.77-8.7617-89.688-3.9375-133.11-3.5039-57.492 0.57422-114.98 1.0938-172.48 1.668-114.27 1.1406-228.61 1.6328-342.83 5.3984-18.637 0.61328-49.801-3.5898-67.367 5.0898-33.395 16.488-10.895 86.438-18.07 115.29-44.555 138.32-75.371 282.37-112.23 422.88-11.16 42.539-27.191 86.387-33.84 129.86-7.8594 51.359 46.727 49.309 85.094 56.062 62.676 11.039 125.73 19.957 189 26.762 33.539 3.6016 67.152 6.5898 100.8 8.9766 22.043 1.5586 53.617 8.7969 75.059-1.0195 18.77-8.5938 22.727-26.832 26.137-45.602 6.0117-33.109 12.395-66.086 19.391-99 11.027-51.898 22.812-103.66 33.035-155.72 18.625 86.16 34.234 174.36 63.961 256.82 6.1562 17.102 11.543 35.902 30.793 40.141 20.039 4.4023 45.996-2.207 65.891-4.7773 78.098-10.117 155.79-24.719 232.74-41.281 34.883-7.5 69.852-15.289 104.11-25.355 13.68-4.0195 39.156-8.2305 48.637-20.496 9.6445-12.516 1.668-31.762-2.125-45.18zm-131.93-323.4c1.7266 5.5781 3.4336 11.16 5.1953 16.715-87.574-19.488-145.78-101.79-181.67-179.76 7.043-0.12109 14.074-0.25391 21.121-0.38281 23.27 71.508 83.438 140.26 155.35 163.43zm-42.695-165.6c0.38281 2.3281 0.68359 4.6562 1.1523 6.9844 9.4219 46.801 21.719 93.035 35.484 138.86-60.086-23.965-110.57-83.125-131.88-143.99 31.512-0.5625 63.012-1.1289 94.523-1.7031 0.28516 0 0.46484-0.13281 0.71875-0.15625zm-733.25 0.94922c33.336 3.4219 66.949 7.8711 100.6 10.559-13.391 39.047-27.781 79.715-58.547 108.71-26.09 24.574-58.465 39.961-91.367 53.258 15.125-58.02 31.254-115.68 49.316-172.52zm-54.398 192.35c38.723-15.227 77.82-32.113 108.21-61.32 33.324-32.016 49.02-75.695 63.66-118.43 0.10937-0.30078 0.13281-0.58984 0.20312-0.875 5.3047 0.3125 10.609 0.60156 15.898 0.78125-23.461 97.801-95.543 171.25-192.24 196.46 1.4062-5.5469 2.8359-11.078 4.2617-16.621zm307.92 417.71c-17.473 2.7109-40.055-2.4492-57.707-3.7812-75.898-5.7734-151.56-14.641-226.71-26.688-26.82-4.2969-107.35-4.3789-111.1-39.48 71.34 11.566 142.66 23.242 214.01 34.656 70.883 11.34 143.26 4.8711 213.67 15.359-5.0781 11.066-13.824 17.078-32.16 19.934zm119.91-339.82c-2.4609-10.152-19.523-11.004-21.395 0-11.52 67.57-26.953 134.36-41.258 201.37-7.0664 33.07-13.68 66.203-19.754 99.48-0.19141 1.043-0.39453 2.0391-0.58984 3.0352-70.656-10.586-142.89-4.043-214-15.422-72.383-11.578-144.73-23.426-217.11-35.16 3.5273-17.867 12.434-38.172 16.477-53.543 21.121-80.363 40.43-161.76 60.863-242.84 107.93-24.301 189.72-106.11 213.94-214.27 7.7891 0.035156 15.562-0.070312 23.34-0.43359 10.668-0.48047 10.727-17.125 0-16.645-56.578 2.5547-113.59-6.1094-169.85-12.012 2.1836-13.031 1.9062-26.27 1.5977-39.504-0.26562-11.398-6.0352-47.016 3.2031-54.289 10.105-7.957 48.91-2.9023 60.996-3.3008 86.879-2.7852 173.84-3.5039 260.76-4.4766 97.789-1.0781 195.56-1.9688 293.35-2.9297 20.074-0.20312 40.199-0.48047 60.254 0.74219 9.5898 0.58984 23.281-0.875 31.645 3.6953 9.6133 5.2695 8.2188 5.8906 9.9102 17.242 4.0664 27.227 2.7852 54.383 5.293 81.602-68.762 1.2344-137.51 2.4727-206.27 3.707-10.703 0.19141-10.727 16.836 0 16.645 18.91-0.33594 37.824-0.68359 56.734-1.0195 0.12109 0.45703 0.25391 0.92578 0.46875 1.3906 38.207 85.754 103.57 177.95 201.89 195.59 1.0078 0.17969 1.9453 0.15625 2.832 0.023438 9.9609 30.781 20.305 61.43 30.73 91.934 21.66 63.395 47.605 126.57 65.785 191.27-145.07 34.234-291.5 61.777-439.07 82.668-32.422-95.004-47.277-197.27-70.785-294.54zm502.98 255.47c-24.012 8.7852-49.367 14.555-74.184 20.484-71.641 17.125-144.17 31.008-216.86 42.863-32.52 5.3047-65.23 10.633-98.102 13.273-25.934 2.0742-28.43 2.9414-37.465-21.637 147.16-20.879 293.18-48.359 437.86-82.488 0.37109 1.4531 0.81641 2.8789 1.1758 4.332 5.1367 20.363 7.6094 15.84-12.418 23.172z"/>
  <path d="m691.79 296.93c-33.07-23.52-75.613-23.074-110.52-4.5586-0.91016-1.0312-2.1016-1.9062-3.6836-2.4492-33.527-11.426-73.188-23.281-106.26-3.6719-28.031 16.621-42.637 56.605-37.465 88.152 4.7539 29.051 30.469 39 54.371 23.711 16.859-10.777 29.09-27.551 42.719-41.855 9.5156-9.9961 19.668-19.309 30.059-28.332-13.547 32.734-23.734 63.742-30.672 100.86-4.0938 21.91-14.762 39.227-21.961 59.82-6.6602 19.02-6.7422 38.762-6.5156 58.68 0.12109 10.703 16.766 10.727 16.645 0-0.26562-23.855 1.8008-44.398 11.641-66.312 7.2734-16.188 12.898-29.914 16.234-47.762 6.4219-34.32 15.863-64.223 28.285-94.957 1.5977 33.395 11.953 62.137 23.27 96.59 12.434 37.848 30.719 80.566 58.871 109.37 7.5 7.668 19.262-4.1055 11.773-11.773-28.512-29.172-45.961-74.688-57.805-112.81-8.6406-27.805-16.883-51.625-19.066-78.395 15.422 25.547 35.52 48.059 60.758 64.766 25.98 17.195 72.301 23.652 81.625-15.758 8.1328-34.438-15.121-73.977-42.301-93.309zm-172.61 47.566c-14.387 15.18-53.438 71.844-69.336 20.723-8.2812-26.617 18.613-62.641 42.359-69.938 24.086-7.3906 49.199-0.046875 72.445 7.7891-15.781 13.105-31.332 26.508-45.469 41.426zm145.8 49.934c-10.055-5.8906-19.117-13.754-27.504-21.77-19.906-19.02-34.859-41.734-45.625-66.875 50.941-24.73 115.41 0.92578 125.72 60.156 6.4922 37.258-26.363 43.859-52.594 28.488z"/>
  <path d="m995.87 689.57c-14.461-9.6484-41.891-1.7031-56.387 3.4688-36.949 8.6875-76.117 17.062-112.02 29.281-17.531 5.9648-23.797 13.871-23.293 33.047 0.38281 14.688 4.0195 29.676 6.1211 44.219 1.7383 12.086 0.51563 35.461 7.6328 45.613 13.02 18.574 42.887 7.6562 61.812 4.2344 41.473-7.5 85.5-18.684 124.55-34.777 23.16-9.5391 18.395-19.668 15.059-44.484-2.8203-20.961-3.3008-67.137-23.473-80.602zm9.8164 107.14c-7.3906 10.078-45.625 14.953-57.805 18.613-21.707 6.5273-43.645 12.539-65.93 16.766-11.699 2.2188-40.598 11.258-50.207 0.69531-3.2539-3.5625-2.8906-20.09-3.6133-25.066-2.9297-20.328-16.262-56.566 3.7422-69.336 13.297-8.4844 40.164-10.164 56.016-14.641 18.59-5.2422 37.199-10.223 56.016-14.641 0.67188-0.15625 1.2852-0.38281 1.8359-0.64844 19.57-6.875 37.5-11.09 47.449 11.473 4.5781 10.379 18.449 68.688 12.496 76.785z"/>
  <path d="m961.61 743.83c10.609-0.82812 10.703-17.473 0-16.645-18.625 1.4531-36.504 6.4062-54.602 10.836-18.852 4.6211-38.496 7.9062-56.219 15.984-9.7305 4.4297-1.2852 18.781 8.3984 14.375 16.129-7.3438 35.125-10.117 52.246-14.305 16.562-4.0664 33.098-8.9141 50.176-10.246z"/>
  <path d="m965.48 770.86c-19.309 1.4023-36.973 5.8438-55.234 12.109-14.902 5.1133-31.105 2.4961-45.023 10.379-9.3242 5.2812-0.9375 19.668 8.3984 14.375 11.664-6.6016 28.105-4.2734 41.051-8.7109 16.871-5.7852 32.879-10.211 50.82-11.52 10.609-0.76953 10.691-17.414-0.011719-16.633z"/>
 </g>
</svg>
