<?xml version="1.0" encoding="UTF-8"?>
<svg width="1200pt" height="1200pt" version="1.1" viewBox="0 0 1200 1200" xmlns="http://www.w3.org/2000/svg">
 <path d="m1181.4 420.89-0.85156-2.1016c-0.019532-0.046874-0.039063-0.085937-0.054688-0.13281v-0.007812s-0.007812-0.007813-0.007812-0.007813c-74.605-186.85-169.02-310.62-169.96-311.86-0.11328-0.14844-0.28906-0.21484-0.41406-0.35547-0.44922-0.52344-0.89844-1.0586-1.4727-1.4805-71.719-52.586-169.2-77.793-238.09-89.711-0.054688-0.007813-0.11328-0.046875-0.16797-0.046875-0.019531 0-0.046875 0.007812-0.066406 0.007812-13.93-2.4102-26.793-4.3125-37.914-5.7383-0.20703-0.027343-0.39453 0.054688-0.60156 0.039063-0.20703-0.019532-0.38281-0.12109-0.58984-0.12109-0.23438 0-0.42969 0.12109-0.66406 0.13281-0.42188 0.027344-0.81641 0.074219-1.2266 0.16016-0.42188 0.085937-0.80469 0.1875-1.1992 0.32812-0.40234 0.14062-0.76953 0.32031-1.1445 0.51562-0.19531 0.10156-0.42188 0.10156-0.61719 0.22656-28.062 17.004-74.133 26.762-126.4 26.762s-98.336-9.7578-126.38-26.766c-0.19531-0.12109-0.42188-0.12109-0.61719-0.22656-0.35547-0.1875-0.70312-0.35547-1.0859-0.49609-0.41406-0.14844-0.82422-0.26172-1.2578-0.34766-0.42188-0.085937-0.82422-0.13281-1.2461-0.16016-0.23828-0.015625-0.43359-0.12891-0.66016-0.12891-0.20703 0-0.38281 0.10156-0.58984 0.12109-0.20703 0.007812-0.39453-0.066406-0.60156-0.039063-11.117 1.4258-23.98 3.3359-37.914 5.7383-0.019531 0-0.039062-0.007812-0.066406-0.007812-0.066406 0-0.11328 0.039062-0.16797 0.046875-68.887 11.906-166.37 37.117-238.09 89.711-0.57031 0.42188-1.0117 0.95703-1.4609 1.4805-0.12109 0.14062-0.30078 0.21484-0.42188 0.36719-0.94531 1.2266-95.352 125.01-169.96 311.86l-0.007813 0.007812v0.007813c-0.019531 0.046875-0.039062 0.085937-0.054687 0.13281l-0.85547 2.0898c-5.6914 14.035-23.023 56.727 15.402 75.301l244.45 99.582-24.852 538.59v0.019531 0.007812l-0.43359 9.3555c0 19.781 0 46.875 37.5 46.875h618.75c37.5 0 37.5-27.094 37.492-47.305l-25.285-547.55 245-99.836c37.875-18.32 20.543-61.023 14.852-75.047zm-174.87-287.69c26.184 37.117 94.988 141.01 153.13 284l-240.62 100.65c1.6484-48.242 9.6953-120.38 18.008-158.84zm-406.17 16.801c64.594 0 133.39-48.039 139.62-120.6 6.0938 0.85156 12.57 1.8359 19.398 2.9531-9.8164 84.32-70.09 136.4-159.41 136.4s-149.6-52.078-159.4-136.4c6.8242-1.1172 13.305-2.1016 19.398-2.9531 6.2617 72.562 75.438 120.6 140.4 120.6zm-102.5-70.727c28.535 9.3945 63.758 14.477 102.1 14.477 38.43 0 73.707-5.1016 102.27-14.539-23.141 32.453-63.348 52.039-101.88 52.039-38.758 0-79.199-19.566-102.5-51.977zm222.62-44.539c-1.0117 6.5352-2.5117 12.871-4.668 18.871-28.48 13.586-70.379 21.395-115.85 21.395-45.441 0-87.32-7.8008-115.8-21.367-2.1758-6.0078-3.6836-12.355-4.707-18.898 30.781 13.734 73.438 21.516 120.51 21.516 47.082 0 89.738-7.7812 120.52-21.516zm-298.39 0.85156c11.332 92.598 80.004 151.91 177.87 151.91s166.54-59.316 177.87-151.91c64.258 11.906 149.6 35.27 214.31 80.605l-73.227 238.08c-9.5547 44.07-18.59 129.05-18.918 177.66v0.16797c-0.007812 0.89063-0.027343 1.8477-0.027343 2.7109l27.25 590.19h-654.52l27.254-590.62-0.027344-2.4375c-0.28906-48.133-9.3555-133.49-19.133-178.45l-73.023-237.3c64.707-45.336 150.05-68.699 214.31-80.605zm-228.7 97.613 69.273 225.04c8.5117 39.234 16.594 111.66 18.227 159.61l-240.63-100.65c58.094-142.88 126.94-246.86 153.13-284zm-151.85 345.86c-16.574-8.0156-15.777-23.559-8.1758-44.43l247.66 103.59-1.7344 37.668zm867.79 692.81h-618.75c-17.953 0-18.75-6.2891-18.758-27.695l0.015624-0.42969h656.24c0 21.836-0.79688 28.125-18.75 28.125zm249.59-693.05-238.29 97.078-1.7422-37.668 247.67-103.59c7.6016 20.855 8.4453 36.391-7.6328 44.184z"/>
</svg>
